<svg id="Faces" xmlns="http://www.w3.org/2000/svg" viewBox="0 0 62.81 87.4"><defs><style>.cls-1{fill:#2b2b2b;}.cls-2{fill:#fff;}</style></defs><g id="_1" data-name="1"><path class="cls-1" d="M64,107.44c-1.21-.08-5.85-1.45-5.93-1.09a1.11,1.11,0,0,0,.57,1.26,15.75,15.75,0,0,0,5.69.9s4.24.09,5.22-.36a.89.89,0,0,0,.41-1c0-.24-.19-.39-.38-.39A29.45,29.45,0,0,1,64,107.44Z" transform="translate(-32.6 -21.12)"/><path class="cls-1" d="M82.88,88.89c-3.44,4.68-11.6,9.09-17.15,9.5-6.93.5-14.26-2.51-20.22-5.63-.57-.3-1.31.49-.75.94,5.59,4.48,15.67,7.93,22.89,6.41a24.76,24.76,0,0,0,10.06-4.47c2.23-1.68,6-3.09,6.56-6.14A.77.77,0,0,0,82.88,88.89Z" transform="translate(-32.6 -21.12)"/><g id="Eyes"><path class="cls-2" d="M92.82,47.19c2.61,5.15-.3,18.18-7.61,19.47C77.26,68.07,71.29,63.28,70.1,57c-2.36-12.43,8.27-17.09,13-17S90.42,42.46,92.82,47.19Z" transform="translate(-32.6 -21.12)"/><path class="cls-2" d="M44.05,39.75C47.23,39,60.48,42,56.8,55.88,55.16,62.1,49,67.14,42.52,65.52c-7.21-1.81-10.76-13.74-7-19.16C37.23,43.86,40.92,40.53,44.05,39.75Z" transform="translate(-32.6 -21.12)"/></g><path class="cls-1" d="M82.7,68.06A17.77,17.77,0,0,1,74,65.19c-2.59-1.55-4.4-4.57-5.09-8.49-1.4-8,1.44-13.6,8.43-16.6a15.46,15.46,0,0,1,6.38-1.43c9.5.15,11.45,12,11.42,14.14C95.09,57.65,91.84,68.21,82.7,68.06Zm.36-28a14.45,14.45,0,0,0-10.24,5c-2.63,3.14-3.51,7.13-2.61,11.85a12,12,0,0,0,12,9.86h0a15,15,0,0,0,3-.24c3.24-.57,5.26-3.36,6.38-5.61,2.25-4.5,2.76-10.52,1.15-13.69-2.56-5.06-5.34-7.14-9.6-7.21Z" transform="translate(-32.6 -21.12)"/><path class="cls-1" d="M78.37,72.42A9.82,9.82,0,0,0,73.53,66a.71.71,0,0,0-.31-.09.37.37,0,0,0-.38.26A2,2,0,0,0,73.51,68c3,2.62,4.07,5,3.26,7.11C75.3,79,67.93,80.71,63.38,80.66c-2.19,0-10.74-1.5-13.22-5.74a5.17,5.17,0,0,1,.2-5.34c.23-.43.87-1.33,1.67-2.47,2.1-3,5.27-7.5,5.78-10,.58-2.77.7-13.79.54-15.32A44,44,0,0,0,57,37c-.27.33-.79.14-1.08.41.43,1.65,1.61,6,1.31,7.5a19.49,19.49,0,0,0-6-5.2,11.25,11.25,0,0,0-4.81-1.17,13.57,13.57,0,0,0-9.84,4.39,13.17,13.17,0,0,0-3.93,9.67c.29,5,3.21,14.54,12.22,14.69A17.4,17.4,0,0,0,51,66.08c-2.79,3.87-3.7,6.8-2.69,8.73,2.34,4.44,8.56,6.9,13.68,7.38.73.07,1.45.1,2.16.12,4.08.06,9.7-.77,13.28-5.13A5.41,5.41,0,0,0,78.37,72.42ZM44.84,65.71a9.92,9.92,0,0,1-2.29-.3c-3.09-.78-5.84-3.62-7.34-7.61-1.61-4.25-1.45-8.71.39-11.38s5.5-5.82,8.48-6.56a4.68,4.68,0,0,1,1.27-.12c2.16,0,7,1.1,9.85,4.88,2.2,2.9,2.7,6.68,1.49,11.24C55.19,61.56,50.09,65.8,44.84,65.71Z" transform="translate(-32.6 -21.12)"/><path class="cls-1" d="M84.31,52.89A4.87,4.87,0,0,0,82,49.57a6.06,6.06,0,0,0-2.9-.85,3.4,3.4,0,0,0-2.53.93,5.28,5.28,0,0,0-.3,6.88,3.93,3.93,0,0,0,3,1.62,5.47,5.47,0,0,0,3.92-2A4,4,0,0,0,84.31,52.89Z" transform="translate(-32.6 -21.12)"/><path class="cls-1" d="M51.51,49.24a3.33,3.33,0,0,0-2.49-1,6.1,6.1,0,0,0-2.93.75,4.84,4.84,0,0,0-2.38,3.26,4,4,0,0,0,1,3.28,5.37,5.37,0,0,0,3.83,2.13,3.89,3.89,0,0,0,3.06-1.52A5.23,5.23,0,0,0,51.51,49.24Z" transform="translate(-32.6 -21.12)"/><path class="cls-1" d="M85.6,26.23A22.56,22.56,0,0,1,93.92,37c-4-1.77-9.51-1.71-13.81-1.44-2.41.14-5.82,1-8.13.61-1.29-.2-.41-5.62-.27-6.27.49-2.3,2.59-7.71,6.1-7.27A18,18,0,0,1,85.6,26.23Z" transform="translate(-32.6 -21.12)"/><path class="cls-1" d="M94.85,38.79a2.87,2.87,0,0,1-1.1-.32s-1.16-.27-1.74-.42a41.52,41.52,0,0,0-8.79-1.47,15.77,15.77,0,0,0-4.08.44,27.89,27.89,0,0,1-5.84.83,3.36,3.36,0,0,1-1.91-.44c-3.25-2.45-.34-10.06,1-12.78a5.24,5.24,0,0,1,5.08-3.07,15.61,15.61,0,0,1,7,2.35c4.94,2.79,10.22,8.3,10.85,14.33a.48.48,0,0,1-.1.4A.6.6,0,0,1,94.85,38.79ZM85,35.33a23.63,23.63,0,0,1,8.72,1.48,22.35,22.35,0,0,0-8.2-10.49c-1.26-.94-4.55-3.17-7.73-3.56l-.34,0c-3.35-.05-5.24,5.33-5.64,7.22-.18.81-.79,4.93-.1,5.93a.4.4,0,0,0,.27.19,7.65,7.65,0,0,0,1.1.09h0a29.12,29.12,0,0,0,4.23-.38c1-.14,1.94-.26,2.78-.31C82,35.35,83.54,35.31,85,35.33Z" transform="translate(-32.6 -21.12)"/><path class="cls-1" d="M56.93,30.43c.12.65.07,5.81-1.22,6-2.32.27-6-.85-8.39-1.07-4.29-.41-9.1-.56-13.11,1.08a24.08,24.08,0,0,1,8.88-10.88,19.7,19.7,0,0,1,8.18-3.42C54.8,21.78,56.52,28.1,56.93,30.43Z" transform="translate(-32.6 -21.12)"/><path class="cls-1" d="M57,37.12c3.12-2.67.56-10.1-.7-12.76a5.26,5.26,0,0,0-5-3.24,15.62,15.62,0,0,0-7.1,2.12c-5,2.63-10.49,8-11.32,14.06a.41.41,0,0,0,.16.37.63.63,0,0,0,.38.1,2.88,2.88,0,0,0,1.1-.28h0a54.19,54.19,0,0,1,11.41-1.15c1.1,0,2.2.08,3.27.19a14,14,0,0,1,1.62.33,33.24,33.24,0,0,0,4.28.72A5.28,5.28,0,0,0,57,37.12Zm-.9-1.1a.6.6,0,0,1-.37.26,9.11,9.11,0,0,1-.93,0,28.79,28.79,0,0,1-4.41-.62c-1.1-.21-2.15-.41-3-.5-1.66-.15-3-.24-4.33-.26a22.64,22.64,0,0,0-8.59,1.26,23.81,23.81,0,0,1,8.74-10.58,19.38,19.38,0,0,1,8.13-3.4,1.51,1.51,0,0,1,.3,0c3.76.06,5.18,7.9,5.24,8.24C56.93,31.07,56.89,34.93,56.07,36Z" transform="translate(-32.6 -21.12)"/></g></svg>